<svg width="189" height="29" viewBox="0 0 189 29" fill="none" xmlns="http://www.w3.org/2000/svg">
<path d="M21.2301 23L24.1278 5.54545H36.0426L35.4631 8.97159H27.767L27.1875 12.5511H34.125L33.5455 15.9858H26.608L25.4489 23H21.2301ZM35.0114 23L37.1932 9.90909H41.2415L40.8409 12.2955H40.9773C41.358 11.4318 41.8551 10.7898 42.4688 10.3693C43.0824 9.94318 43.7472 9.73011 44.4631 9.73011C44.6563 9.73011 44.8494 9.74432 45.0426 9.77273C45.2415 9.79545 45.429 9.82955 45.6051 9.875L44.9915 13.5057C44.7983 13.4318 44.5455 13.3778 44.233 13.3438C43.9205 13.304 43.6364 13.2841 43.3807 13.2841C42.8864 13.2841 42.4261 13.3949 42 13.6165C41.5795 13.8324 41.2216 14.1364 40.9261 14.5284C40.6364 14.9148 40.446 15.3693 40.3551 15.892L39.179 23H35.0114ZM48.277 23.2216C47.4474 23.2216 46.7315 23.0824 46.1293 22.804C45.5327 22.5199 45.0952 22.0909 44.8168 21.517C44.544 20.9432 44.4787 20.2273 44.6207 19.3693C44.7457 18.642 44.9759 18.0312 45.3111 17.5369C45.652 17.0369 46.0696 16.6307 46.5639 16.3182C47.0639 16.0057 47.6207 15.767 48.2344 15.6023C48.848 15.4375 49.4901 15.3267 50.1605 15.2699C50.9105 15.2017 51.5185 15.1278 51.9844 15.0483C52.456 14.9687 52.8082 14.858 53.0412 14.7159C53.2741 14.5682 53.4162 14.3636 53.4673 14.1023V14.0597C53.5355 13.6222 53.4418 13.2841 53.1861 13.0455C52.9304 12.8068 52.5469 12.6875 52.0355 12.6875C51.4901 12.6875 51.0241 12.8068 50.6378 13.0455C50.2514 13.2841 49.9815 13.6136 49.8281 14.0341L46.0099 13.8977C46.2486 13.1023 46.6577 12.392 47.2372 11.767C47.8168 11.1364 48.5526 10.642 49.4446 10.2841C50.3423 9.92045 51.3793 9.73864 52.5554 9.73864C53.3849 9.73864 54.1349 9.83807 54.8054 10.0369C55.4759 10.2301 56.0412 10.5142 56.5014 10.8892C56.9673 11.2585 57.2997 11.7131 57.4986 12.2528C57.6974 12.7926 57.7401 13.4091 57.6264 14.1023L56.1349 23H52.2145L52.5213 21.1761H52.419C52.1122 21.6193 51.7514 21.9943 51.3366 22.3011C50.9276 22.608 50.4673 22.8381 49.956 22.9915C49.4446 23.1449 48.8849 23.2216 48.277 23.2216ZM50.0327 20.4943C50.4702 20.4943 50.8849 20.4034 51.277 20.2216C51.669 20.0398 51.9986 19.7898 52.2656 19.4716C52.5384 19.1477 52.7116 18.7727 52.7855 18.3466L52.9815 17.1023C52.8622 17.1648 52.7116 17.2216 52.5298 17.2727C52.348 17.3239 52.1548 17.3722 51.9503 17.4176C51.7457 17.4574 51.5355 17.4972 51.3196 17.5369C51.1094 17.571 50.9077 17.6023 50.7145 17.6307C50.3054 17.6932 49.9503 17.7898 49.6491 17.9205C49.348 18.0511 49.1065 18.2216 48.9247 18.4318C48.7486 18.6364 48.6406 18.8807 48.6009 19.1648C48.5327 19.5909 48.6321 19.9205 48.8991 20.1534C49.1662 20.3807 49.544 20.4943 50.0327 20.4943ZM58.7088 23L60.8906 9.90909H64.8537L64.4616 12.3125H64.6065C65.0043 11.517 65.5668 10.8892 66.294 10.429C67.0213 9.96875 67.8338 9.73864 68.7315 9.73864C69.6349 9.73864 70.3707 9.97159 70.9389 10.4375C71.5128 10.9034 71.8224 11.5284 71.8679 12.3125H72.0043C72.3793 11.5341 72.9588 10.9119 73.7429 10.446C74.5327 9.97443 75.4134 9.73864 76.3849 9.73864C77.6122 9.73864 78.5469 10.1364 79.1889 10.9318C79.8366 11.7216 80.044 12.8068 79.8111 14.1875L78.3452 23H74.1861L75.5156 15.142C75.6065 14.4886 75.5099 13.9915 75.2259 13.6506C74.9474 13.304 74.5412 13.1307 74.0071 13.1307C73.4332 13.1307 72.9531 13.3153 72.5668 13.6847C72.1861 14.054 71.9503 14.554 71.8594 15.1847L70.5384 23H66.5241L67.8622 15.0994C67.9474 14.4915 67.8537 14.0114 67.581 13.6591C67.3139 13.3068 66.9077 13.1307 66.3622 13.1307C66.0043 13.1307 65.6719 13.2187 65.3651 13.3949C65.0582 13.5653 64.7997 13.8097 64.5895 14.1278C64.3849 14.446 64.2514 14.821 64.1889 15.2528L62.8764 23H58.7088ZM86.9872 23.2472C85.6179 23.2472 84.4815 22.9773 83.5781 22.4375C82.6804 21.892 82.0497 21.1165 81.6861 20.1108C81.3224 19.0994 81.2571 17.8977 81.4901 16.5057C81.7173 15.1534 82.1804 13.9716 82.8793 12.9602C83.5838 11.9432 84.4702 11.1534 85.5384 10.5909C86.6065 10.0227 87.7969 9.73864 89.1094 9.73864C90.0412 9.73864 90.8679 9.88352 91.5895 10.1733C92.3111 10.4631 92.9077 10.8949 93.3793 11.4688C93.8509 12.0369 94.1719 12.7358 94.3423 13.5653C94.5128 14.3949 94.5071 15.3466 94.3253 16.4205L94.1634 17.4602H82.794L83.1776 15.0398H90.6776C90.7457 14.5966 90.7088 14.2017 90.5668 13.8551C90.4247 13.5085 90.1946 13.2386 89.8764 13.0455C89.5639 12.8466 89.1804 12.7472 88.7259 12.7472C88.2656 12.7472 87.8338 12.8551 87.4304 13.071C87.0327 13.2812 86.6946 13.5653 86.4162 13.9233C86.1378 14.2812 85.956 14.6847 85.8707 15.1335L85.419 17.6136C85.3281 18.1648 85.3537 18.6364 85.4957 19.0284C85.6378 19.4205 85.8821 19.7216 86.2287 19.9318C86.5753 20.1364 87.0213 20.2386 87.5668 20.2386C87.9304 20.2386 88.2713 20.1903 88.5895 20.0938C88.9077 19.9915 89.1918 19.8409 89.4418 19.642C89.6974 19.4375 89.9048 19.1903 90.0639 18.9006L93.8651 19.0114C93.5582 19.8693 93.0838 20.6165 92.4418 21.2528C91.7997 21.8835 91.0156 22.375 90.0895 22.7273C89.169 23.0739 88.1349 23.2472 86.9872 23.2472ZM95.3629 23L97.5447 9.90909H101.593L101.192 12.2955H101.329C101.71 11.4318 102.207 10.7898 102.82 10.3693C103.434 9.94318 104.099 9.73011 104.815 9.73011C105.008 9.73011 105.201 9.74432 105.394 9.77273C105.593 9.79545 105.781 9.82955 105.957 9.875L105.343 13.5057C105.15 13.4318 104.897 13.3778 104.585 13.3438C104.272 13.304 103.988 13.2841 103.732 13.2841C103.238 13.2841 102.778 13.3949 102.352 13.6165C101.931 13.8324 101.573 14.1364 101.278 14.5284C100.988 14.9148 100.798 15.3693 100.707 15.892L99.5305 23H95.3629ZM108.362 5.54545H113.587L116.229 16.3523H116.433L122.655 5.54545H127.879L124.982 23H120.874L122.655 12.2784H122.51L116.561 22.8892H113.945L111.524 12.2188H111.379L109.572 23H105.464L108.362 5.54545ZM133.715 23.2472C132.335 23.2472 131.195 22.9631 130.298 22.3949C129.406 21.8267 128.778 21.0341 128.414 20.017C128.05 19 127.979 17.8182 128.201 16.4716C128.423 15.1307 128.88 13.9545 129.573 12.9432C130.266 11.9318 131.153 11.1449 132.232 10.5824C133.312 10.0199 134.536 9.73864 135.906 9.73864C137.281 9.73864 138.414 10.0227 139.306 10.5909C140.204 11.1591 140.835 11.9517 141.198 12.9688C141.567 13.9858 141.641 15.1705 141.42 16.5227C141.198 17.8636 140.738 19.0398 140.039 20.0511C139.34 21.0568 138.454 21.8409 137.38 22.4034C136.306 22.9659 135.085 23.2472 133.715 23.2472ZM134.184 20.1023C134.695 20.1023 135.153 19.9489 135.556 19.642C135.965 19.3352 136.309 18.9062 136.587 18.3551C136.866 17.804 137.065 17.1648 137.184 16.4375C137.303 15.7216 137.315 15.0938 137.218 14.554C137.127 14.0085 136.934 13.5852 136.638 13.2841C136.343 12.9773 135.942 12.8239 135.437 12.8239C134.925 12.8239 134.465 12.9801 134.056 13.2926C133.647 13.5994 133.303 14.0284 133.025 14.5795C132.752 15.125 132.556 15.7642 132.437 16.4972C132.317 17.2131 132.303 17.8409 132.394 18.3807C132.485 18.9205 132.681 19.3438 132.982 19.6506C133.283 19.9517 133.684 20.1023 134.184 20.1023ZM152.043 9.90909L151.523 12.9773H143.265L143.785 9.90909H152.043ZM146.026 6.77273H150.194L148.183 18.8835C148.143 19.1392 148.148 19.3466 148.2 19.5057C148.256 19.6591 148.359 19.7699 148.506 19.8381C148.66 19.9006 148.847 19.9318 149.069 19.9318C149.222 19.9318 149.393 19.9148 149.58 19.8807C149.768 19.8466 149.91 19.821 150.006 19.804L150.143 22.8125C149.921 22.875 149.623 22.946 149.248 23.0256C148.879 23.1108 148.447 23.1648 147.952 23.1875C146.952 23.2273 146.126 23.1108 145.472 22.8381C144.825 22.5597 144.367 22.1278 144.1 21.5426C143.839 20.9574 143.788 20.2244 143.947 19.3438L146.026 6.77273ZM151.988 23L154.17 9.90909H158.337L156.156 23H151.988ZM156.548 8.375C155.957 8.375 155.477 8.17898 155.107 7.78693C154.738 7.39489 154.593 6.92614 154.673 6.38068C154.752 5.82955 155.031 5.3608 155.508 4.97443C155.985 4.58807 156.516 4.39489 157.102 4.39489C157.692 4.39489 158.167 4.58807 158.525 4.97443C158.888 5.3608 159.031 5.82955 158.951 6.38068C158.883 6.92614 158.61 7.39489 158.133 7.78693C157.661 8.17898 157.133 8.375 156.548 8.375ZM164.911 23.2472C163.53 23.2472 162.391 22.9631 161.493 22.3949C160.601 21.8267 159.973 21.0341 159.609 20.017C159.246 19 159.175 17.8182 159.396 16.4716C159.618 15.1307 160.075 13.9545 160.768 12.9432C161.462 11.9318 162.348 11.1449 163.428 10.5824C164.507 10.0199 165.732 9.73864 167.101 9.73864C168.476 9.73864 169.609 10.0227 170.501 10.5909C171.399 11.1591 172.03 11.9517 172.393 12.9688C172.763 13.9858 172.837 15.1705 172.615 16.5227C172.393 17.8636 171.933 19.0398 171.234 20.0511C170.536 21.0568 169.649 21.8409 168.575 22.4034C167.501 22.9659 166.28 23.2472 164.911 23.2472ZM165.379 20.1023C165.891 20.1023 166.348 19.9489 166.751 19.642C167.161 19.3352 167.504 18.9062 167.783 18.3551C168.061 17.804 168.26 17.1648 168.379 16.4375C168.499 15.7216 168.51 15.0938 168.413 14.554C168.322 14.0085 168.129 13.5852 167.834 13.2841C167.538 12.9773 167.138 12.8239 166.632 12.8239C166.121 12.8239 165.661 12.9801 165.251 13.2926C164.842 13.5994 164.499 14.0284 164.22 14.5795C163.947 15.125 163.751 15.7642 163.632 16.4972C163.513 17.2131 163.499 17.8409 163.589 18.3807C163.68 18.9205 163.876 19.3438 164.178 19.6506C164.479 19.9517 164.879 20.1023 165.379 20.1023ZM179.105 15.5341L177.861 23H173.693L175.875 9.90909H179.838L179.446 12.3125H179.591C180 11.5114 180.594 10.8835 181.372 10.429C182.151 9.96875 183.026 9.73864 183.997 9.73864C184.912 9.73864 185.676 9.94318 186.29 10.3523C186.903 10.7614 187.338 11.3352 187.594 12.0739C187.849 12.8068 187.892 13.6676 187.722 14.6562L186.324 23H182.156L183.409 15.4744C183.534 14.7528 183.446 14.1875 183.145 13.7784C182.849 13.3636 182.366 13.1562 181.696 13.1562C181.259 13.1562 180.858 13.2528 180.494 13.446C180.136 13.6335 179.835 13.9034 179.591 14.2557C179.352 14.608 179.19 15.0341 179.105 15.5341Z" fill="white"/>
<path d="M7.96875 23L10.8324 5.54545H13.9006L11.0369 23H7.96875ZM0.1875 18.8409L0.707386 15.7727H14.5483L14.0284 18.8409H0.1875ZM1.83239 23L4.69602 5.54545H7.7642L4.90057 23H1.83239ZM1.18466 12.7727L1.70455 9.70454H15.5455L15.0256 12.7727H1.18466Z" fill="#2F80ED"/>
</svg>
